<svg width="16" height="16" viewBox="0 0 16 16" fill="none" xmlns="http://www.w3.org/2000/svg">
<g id="CDL - Logo">
<g id="Group">
<path id="Vector" fill="black" d="M6.61091 1.62096C6.35024 2.09491 2.10844 12.9482 2.10844 13.1378C2.10844 13.1852 2.65348 13.2326 3.317 13.2326C4.45447 13.2326 4.52556 13.2563 4.88101 14.1331C5.09429 14.607 5.30756 14.8914 5.35496 14.7255C5.40235 14.5596 5.33126 14.2042 5.16538 13.9198C4.92841 13.4459 4.95211 13.3274 5.42605 12.9482C5.97109 12.5217 5.99478 12.5217 6.58721 13.0904C6.94267 13.4222 7.5588 13.7776 7.98535 13.8487C8.67256 13.9909 8.74366 13.9435 8.74366 13.4696C8.74366 13.1141 8.3882 12.6165 7.79577 12.0951C6.89528 11.3368 6.84788 11.242 7.15594 10.7681C7.34552 10.5074 7.5588 9.39364 7.65359 8.32727C7.81947 6.50258 7.79577 6.3841 7.32182 6.12343C7.03746 5.98124 6.87158 5.79167 6.94267 5.72057C7.01376 5.64948 7.25073 5.72057 7.44031 5.88646C7.77207 6.17082 7.91425 6.12343 8.3408 5.55469L8.86214 4.91487L10.7105 7.40308C11.7295 8.75381 12.6537 9.91498 12.7722 9.96237C13.1276 10.0809 13.1276 10.697 12.7959 12.1188C12.4878 13.3748 12.393 13.4933 11.9191 13.3748C11.611 13.28 11.303 13.3274 11.2319 13.4696C11.0423 13.7776 11.3266 14.6544 11.611 14.6544C11.7532 14.6544 11.7295 14.4648 11.5873 14.1805C11.3503 13.7302 11.374 13.6828 11.9665 13.7539C12.5826 13.825 12.6537 13.7302 13.0565 12.4032C13.3172 11.5501 13.4594 10.6733 13.3646 10.223C13.2698 9.67801 13.3409 9.41734 13.6253 9.25146C13.9807 9.06188 13.6964 8.56424 11.6584 5.72057C10.3551 3.91959 9.2176 2.1423 9.12281 1.78684C8.98063 1.21811 8.86214 1.14702 7.91425 1.14702C7.10855 1.14702 6.80049 1.2655 6.61091 1.62096ZM8.79105 2.21339C9.14651 3.96698 8.55408 5.36512 7.60619 5.08075C6.96637 4.86748 6.89528 4.58311 7.03746 2.9717C7.13225 1.62096 7.15594 1.62096 7.91425 1.62096C8.55408 1.62096 8.71996 1.71575 8.79105 2.21339ZM6.58721 3.44565C6.49242 4.08547 5.8763 6.43149 5.21278 8.70642C4.54925 10.9814 4.00422 12.8771 4.00422 12.9008C4.00422 12.9482 3.69616 12.9482 3.2933 12.9245C2.91415 12.9008 2.58239 12.8534 2.58239 12.8297C2.58239 12.806 3.41179 10.6022 4.43077 7.97181C5.44975 5.31772 6.37394 2.9717 6.44503 2.73473C6.7057 2.00012 6.77679 2.30818 6.58721 3.44565ZM11.4688 6.00494C12.4878 7.42677 13.3172 8.75382 13.3409 8.96709C13.412 9.89128 12.4404 9.15667 10.9001 7.09501C9.45457 5.17554 9.2176 4.72529 9.2176 3.89589C9.2176 2.78212 9.09911 2.66364 11.4688 6.00494ZM7.79577 5.5073C7.98535 5.57839 7.86686 5.60209 7.5114 5.531C6.77679 5.38881 6.35024 5.83906 6.94267 6.17082C7.48771 6.47888 7.48771 9.60691 6.91897 10.6022L6.49242 11.3368L7.5351 12.3558C8.53038 13.28 8.55408 13.3511 8.05644 13.4222C7.70098 13.4696 7.25073 13.28 6.80049 12.8297C6.11327 12.1662 6.11327 12.1662 5.37866 12.5928C4.9758 12.8297 4.59665 12.9482 4.52556 12.9008C4.45447 12.8297 4.92841 10.9577 5.54454 8.73012C6.56351 5.15184 6.7294 4.74899 7.06116 5.03336C7.27443 5.19924 7.60619 5.41251 7.79577 5.5073Z"/>
</g>
</g>

</svg>
